<svg width="512" height="512" viewBox="0 0 512 512" fill="none" xmlns="http://www.w3.org/2000/svg">
<path d="M217.21 353.387C209.518 345.4 199.568 339.501 188.184 336.773L147.041 326.914V301.797H96.799V326.995L55.763 336.798C28.93 343.208 10 367.191 10 394.779V462H100.962L217.21 353.387Z" fill="#38B1E7"/>
<path d="M148.12 301.797V327.592L122.046 390.047L96 327.681V301.797H148.12Z" fill="#FFB487"/>
<path d="M177.955 215.261V250.051C177.955 280.979 152.882 306.051 121.953 306.051C91.024 306.051 65.951 280.979 65.951 250.051V215.261H177.955Z" fill="#DDA783"/>
<path d="M177.955 226.266V212.785C177.955 181.857 152.882 156.785 121.953 156.785C91.024 156.785 65.951 181.857 65.951 212.785V226.266H104.554C128.728 226.266 152.449 219.703 173.185 207.278" fill="#6A4002"/>
<path d="M294.79 353.387C302.482 345.4 312.432 339.501 323.816 336.773L364.959 326.914L364.976 326.941L364.959 326.914V301.797H415.201V326.995L456.237 336.798C483.07 343.208 502 367.191 502 394.779V462H411.038L294.79 353.387Z" fill="#08AFC9"/>
<path d="M220.953 352.403L163.647 366.135C126.299 375.085 99.962 408.478 99.962 446.882V502H411.832V446.93C411.832 408.504 385.466 375.098 348.09 366.169L290.933 352.515L220.953 352.403Z" fill="#0D5198"/>
<path d="M416 301.797V327.681L389.954 390.047L363.88 327.592V301.797H416Z" fill="#984F1E"/>
<path d="M256.01 432.738L293.32 348.03C290.551 343.38 288.973 337.968 288.973 332.238V324.096H223.007V332.239C223.007 337.959 221.435 343.363 218.674 348.008L256.01 432.738Z" fill="#753D18"/>
<path d="M334.001 191.525V245.344C334.001 288.422 299.079 323.345 256.001 323.345C212.923 323.345 178.001 288.423 178.001 245.344V191.525H334.001V191.525Z" fill="#753D18"/>
<path d="M256 115.437C212.921 115.437 177.999 150.359 177.999 193.437V212.214H216.136C241.487 212.214 265.538 200.989 281.82 181.558L333.999 212.214V193.437C334.001 150.359 299.079 115.437 256 115.437Z" fill="#2B2722"/>
<path d="M334.045 215.261V250.051C334.045 280.979 359.118 306.051 390.047 306.051C420.976 306.051 446.049 280.979 446.049 250.051V215.261H334.045Z" fill="#984F1E"/>
<path d="M334.045 226.266V212.785C334.045 181.857 359.118 156.785 390.047 156.785C420.976 156.785 446.049 181.857 446.049 212.785V226.266H407.446C383.272 226.266 359.551 219.703 338.815 207.278" fill="#878791"/>
<path d="M255.74 492C253.109 492 250.529 493.07 248.67 494.93C246.81 496.79 245.74 499.37 245.74 502C245.74 504.63 246.809 507.21 248.67 509.07C250.529 510.93 253.109 512 255.74 512C258.37 512 260.95 510.93 262.809 509.07C264.669 507.21 265.74 504.63 265.74 502C265.74 499.37 264.67 496.79 262.809 494.93C260.95 493.07 258.37 492 255.74 492Z" fill="black"/>
<path d="M458.56 327.071L425.202 319.102V305.87C443.718 294.167 456.05 273.528 456.05 250.052V212.785C456.05 176.392 426.442 146.785 390.048 146.785C370.416 146.785 352.769 155.411 340.668 169.06C330.07 132.357 296.173 105.437 256.104 105.437H256.103C215.969 105.437 182.026 132.442 171.487 169.235C159.383 155.485 141.671 146.785 121.955 146.785C85.561 146.785 55.953 176.393 55.953 212.785V250.052C55.953 273.529 68.285 294.168 86.801 305.87V319.102L53.443 327.071C21.976 334.587 0 362.43 0 394.779V462C0 467.523 4.478 472 10 472H89.963V502C89.963 507.523 94.441 512 99.963 512H209.667C215.189 512 219.667 507.523 219.667 502C219.667 496.477 215.189 492 209.667 492H165.024V447.988C165.024 442.465 160.546 437.988 155.024 437.988C149.502 437.988 145.024 442.465 145.024 447.988V492H109.962V446.882C109.962 412.968 132.996 383.763 165.977 375.86L215.16 364.074L246.806 436.07C248.402 439.701 251.993 442.046 255.959 442.046H255.96C259.926 442.046 263.518 439.702 265.114 436.071L296.728 364.18L345.768 375.895C378.779 383.78 401.833 412.991 401.833 446.929V458.088C401.322 459.29 401.038 460.611 401.038 461.999C401.038 463.387 401.322 464.709 401.833 465.91V492H366.976V447.988C366.976 442.465 362.498 437.988 356.976 437.988C351.454 437.988 346.976 442.465 346.976 447.988V492H298.001C292.479 492 288.001 496.477 288.001 502C288.001 507.523 292.479 512 298.001 512H411.833C417.355 512 421.833 507.523 421.833 502V472H502C507.522 472 512 467.523 512 462V394.779C512 362.43 490.024 334.587 458.56 327.071ZM405.224 327.535L389.956 364.094L374.894 328.016C374.934 327.653 374.963 327.288 374.963 326.922C374.963 326.829 374.962 326.735 374.959 326.642V314.292C379.809 315.431 384.855 316.052 390.047 316.052C395.262 316.052 400.332 315.425 405.201 314.276V326.994C405.201 327.176 405.214 327.355 405.224 327.535ZM210.953 335.568C204.675 331.674 197.787 328.791 190.515 327.049L157.041 319.028V305.913C165.366 300.666 172.437 293.614 177.708 285.306C185.247 300.035 196.818 312.369 210.953 320.853V335.568V335.568ZM188.1 245.345V222.215H216.238C241.762 222.215 265.953 212.127 283.825 194.274L324.046 217.903V247.692C322.802 284.103 292.813 313.346 256.103 313.346C218.605 313.345 188.1 282.84 188.1 245.345ZM300.934 321.041C315.156 312.586 326.808 300.243 334.405 285.482C339.665 293.713 346.694 300.702 354.959 305.913V319.028L321.485 327.049C314.169 328.802 307.242 331.711 300.933 335.641V321.041H300.934V321.041ZM390.047 296.052C364.682 296.052 344.045 275.416 344.045 250.052V248.42C344.08 247.399 344.105 221.532 344.105 221.532C363.764 231.2 385.437 236.267 407.447 236.267H436.05V250.053C436.049 275.417 415.412 296.052 390.047 296.052ZM390.047 166.785C415.412 166.785 436.049 187.421 436.049 212.785V215.261V216.266H407.446C385.84 216.266 364.609 210.593 345.898 199.84C351.504 180.758 369.174 166.785 390.047 166.785ZM188.1 193.438C188.1 155.942 218.606 125.438 256.103 125.438C293.599 125.438 324.105 155.943 324.105 193.438V194.742L286.99 172.937C282.779 170.462 277.397 171.393 274.26 175.136C259.84 192.344 238.692 202.214 216.239 202.214H188.1V193.438ZM75.951 212.785C75.951 187.42 96.588 166.785 121.953 166.785C142.826 166.785 160.496 180.758 166.101 199.841C147.39 210.593 126.16 216.267 104.553 216.267H75.951V215.262V212.785ZM75.951 236.266H104.554C126.586 236.266 148.281 231.19 167.955 221.503V250.052C167.955 275.417 147.318 296.052 121.953 296.052C96.588 296.052 75.951 275.416 75.951 250.052C75.951 250.052 75.951 236.266 75.951 236.266ZM121.953 316.052C127.145 316.052 132.191 315.43 137.041 314.292V326.362C137.03 326.55 137.025 326.738 137.025 326.926C137.025 327.241 137.055 327.554 137.085 327.867L121.955 364.094L106.768 327.715C106.785 327.476 106.799 327.237 106.799 326.995V314.277C111.668 315.425 116.738 316.052 121.953 316.052ZM89.963 446.882V452H60V407.571C60 402.048 55.522 397.571 50 397.571C44.478 397.571 40 402.048 40 407.571V452H20V394.779C20 371.724 35.662 351.881 58.087 346.524L89.785 338.951L110.473 388.506C97.534 404.58 89.963 424.954 89.963 446.882ZM161.317 356.411C155.412 357.826 149.769 359.795 144.411 362.223L154.151 338.901L185.854 346.498C188.313 347.087 190.709 347.866 193.028 348.812L161.317 356.411ZM255.962 407.199L230.953 350.302V329.678C238.925 332.06 247.366 333.345 256.102 333.345C264.722 333.345 273.055 332.093 280.933 329.772V350.413L255.962 407.199ZM318.789 348.888C321.165 347.908 323.622 347.103 326.146 346.498L357.772 338.92L367.552 362.346C362.125 359.874 356.404 357.875 350.414 356.444L318.789 348.888ZM492 452H472V407.571C472 402.048 467.522 397.571 462 397.571C456.478 397.571 452 402.048 452 407.571V452H421.833V446.93C421.833 425.031 414.287 404.685 401.385 388.625L422.138 338.933L453.913 346.524C476.338 351.881 492 371.724 492 394.779V452V452Z" fill="black"/>
<path d="M222.46 231.25C219.83 231.25 217.25 232.32 215.39 234.18C213.53 236.04 212.46 238.62 212.46 241.25C212.46 243.88 213.529 246.46 215.39 248.32C217.251 250.18 219.83 251.25 222.46 251.25C225.1 251.25 227.67 250.18 229.529 248.32C231.399 246.46 232.46 243.88 232.46 241.25C232.46 238.62 231.399 236.04 229.529 234.18C227.67 232.32 225.09 231.25 222.46 231.25Z" fill="black"/>
<path d="M289.33 251.25C291.96 251.25 294.54 250.18 296.399 248.32C298.269 246.46 299.33 243.88 299.33 241.25C299.33 238.62 298.269 236.04 296.399 234.18C294.54 232.32 291.96 231.25 289.33 231.25C286.7 231.25 284.12 232.32 282.26 234.18C280.4 236.04 279.33 238.62 279.33 241.25C279.33 243.88 280.399 246.46 282.26 248.32C284.121 250.18 286.7 251.25 289.33 251.25Z" fill="black"/>
<path d="M275.247 267.842C271.341 263.937 265.011 263.937 261.104 267.842C258.147 270.799 253.336 270.799 250.379 267.842C246.473 263.937 240.143 263.937 236.236 267.842C232.331 271.747 232.331 278.079 236.236 281.985C241.614 287.362 248.677 290.051 255.741 290.051C262.805 290.051 269.868 287.363 275.246 281.985C279.152 278.079 279.152 271.747 275.247 267.842Z" fill="black"/>
<path d="M406.62 74H413.479C419.001 74 423.479 69.523 423.479 64C423.479 58.477 419.001 54 413.479 54H406.62C401.098 54 396.62 58.477 396.62 64C396.62 69.523 401.098 74 406.62 74Z" fill="black"/>
<path d="M455.141 74H462C467.522 74 472 69.523 472 64C472 58.477 467.522 54 462 54H455.141C449.619 54 445.141 58.477 445.141 64C445.141 69.523 449.618 74 455.141 74Z" fill="black"/>
<path d="M434.311 101.69C439.833 101.69 444.311 97.213 444.311 91.69V84.831C444.311 79.308 439.833 74.831 434.311 74.831C428.789 74.831 424.311 79.308 424.311 84.831V91.69C424.311 97.213 428.788 101.69 434.311 101.69Z" fill="black"/>
<path d="M434.311 53.169C439.833 53.169 444.311 48.692 444.311 43.169V36.31C444.311 30.787 439.833 26.31 434.311 26.31C428.789 26.31 424.311 30.787 424.311 36.31V43.169C424.311 48.692 428.788 53.169 434.311 53.169Z" fill="black"/>
<path d="M49.444 74H56.302C61.824 74 66.302 69.523 66.302 64C66.302 58.477 61.824 54 56.302 54H49.444C43.922 54 39.444 58.477 39.444 64C39.444 69.523 43.922 74 49.444 74Z" fill="black"/>
<path d="M97.965 74H104.823C110.345 74 114.823 69.523 114.823 64C114.823 58.477 110.345 54 104.823 54H97.965C92.443 54 87.965 58.477 87.965 64C87.965 69.523 92.442 74 97.965 74Z" fill="black"/>
<path d="M77.134 101.69C82.656 101.69 87.134 97.213 87.134 91.69V84.831C87.134 79.308 82.656 74.831 77.134 74.831C71.612 74.831 67.134 79.308 67.134 84.831V91.69C67.134 97.213 71.611 101.69 77.134 101.69Z" fill="black"/>
<path d="M77.134 53.169C82.656 53.169 87.134 48.692 87.134 43.169V36.31C87.134 30.787 82.656 26.31 77.134 26.31C71.612 26.31 67.134 30.787 67.134 36.31V43.169C67.134 48.692 71.611 53.169 77.134 53.169Z" fill="black"/>
<path d="M256 84.397C261.522 84.397 266 79.92 266 74.397V48.087C266 42.564 261.522 38.087 256 38.087C250.478 38.087 246 42.564 246 48.087V74.397C246 79.92 250.478 84.397 256 84.397Z" fill="black"/>
<path d="M256 20C258.63 20 261.21 18.93 263.069 17.07C264.93 15.21 266 12.63 266 10C266 7.37 264.93 4.79 263.069 2.93C261.21 1.07 258.63 0 256 0C253.37 0 250.79 1.07 248.93 2.93C247.069 4.79 246 7.37 246 10C246 12.63 247.069 15.21 248.93 17.07C250.791 18.93 253.37 20 256 20Z" fill="black"/>
<path d="M206.813 54.262C208.766 56.215 211.325 57.191 213.884 57.191C216.443 57.191 219.002 56.215 220.955 54.262C224.86 50.357 224.86 44.025 220.955 40.119L206.321 25.485C202.415 21.58 196.085 21.58 192.178 25.485C188.273 29.39 188.273 35.722 192.178 39.628L206.813 54.262Z" fill="black"/>
<path d="M297.626 57.13C300.186 57.13 302.744 56.154 304.697 54.201L319.82 39.078C323.725 35.173 323.725 28.841 319.82 24.935C315.914 21.03 309.584 21.03 305.677 24.935L290.554 40.058C286.649 43.963 286.649 50.295 290.554 54.201C292.508 56.154 295.066 57.13 297.626 57.13Z" fill="black"/>
</svg>
