<svg width="349" height="203" viewBox="0 0 349 203" fill="none" xmlns="http://www.w3.org/2000/svg">
<rect width="349" height="203" fill="#CAF4FF"/>
<path d="M313.678 17.3223C308.956 12.6005 302.678 10 296 10C289.322 10 283.044 12.6005 278.322 17.3223C273.6 22.0441 271 28.322 271 35C271 41.6776 273.6 47.9559 278.322 52.6777C283.044 57.3995 289.322 60 296 60C302.678 60 308.956 57.3995 313.678 52.6777C318.4 47.9559 321 41.6776 321 35C321 28.322 318.4 22.0441 313.678 17.3223ZM283.533 53.2018C284.579 47.1815 289.796 42.7408 296 42.7408C302.205 42.7408 307.421 47.1815 308.467 53.2018C304.917 55.6406 300.623 57.0703 296 57.0703C291.377 57.0703 287.083 55.6406 283.533 53.2018ZM288.051 31.862C288.051 27.4786 291.617 23.913 296 23.913C300.383 23.913 303.949 27.4789 303.949 31.862C303.949 36.2451 300.383 39.8111 296 39.8111C291.617 39.8111 288.051 36.2451 288.051 31.862ZM311.004 51.1697C310.216 48.3671 308.65 45.8242 306.455 43.8379C305.108 42.6191 303.576 41.6574 301.928 40.9795C304.906 39.0367 306.879 35.6756 306.879 31.862C306.879 25.8634 301.999 20.9833 296 20.9833C290.001 20.9833 285.121 25.8634 285.121 31.862C285.121 35.6756 287.094 39.0367 290.072 40.9795C288.425 41.6574 286.892 42.6187 285.545 43.8375C283.35 45.8238 281.784 48.3667 280.996 51.1694C276.653 47.1361 273.93 41.3805 273.93 35C273.93 22.8304 283.83 12.9297 296 12.9297C308.17 12.9297 318.07 22.8304 318.07 35C318.07 41.3808 315.347 47.1365 311.004 51.1697Z" fill="#5687E7"/>
<path d="M310.678 151.322C305.956 146.6 299.678 144 293 144C286.322 144 280.044 146.6 275.322 151.322C270.6 156.044 268 162.322 268 169C268 175.678 270.6 181.956 275.322 186.678C280.044 191.4 286.322 194 293 194C299.678 194 305.956 191.4 310.678 186.678C315.4 181.956 318 175.678 318 169C318 162.322 315.4 156.044 310.678 151.322ZM280.533 187.202C281.579 181.181 286.796 176.741 293 176.741C299.205 176.741 304.421 181.181 305.467 187.202C301.917 189.641 297.623 191.07 293 191.07C288.377 191.07 284.083 189.641 280.533 187.202ZM285.051 165.862C285.051 161.479 288.617 157.913 293 157.913C297.383 157.913 300.949 161.479 300.949 165.862C300.949 170.245 297.383 173.811 293 173.811C288.617 173.811 285.051 170.245 285.051 165.862ZM308.004 185.17C307.216 182.367 305.65 179.824 303.455 177.838C302.108 176.619 300.576 175.657 298.928 174.98C301.906 173.037 303.879 169.676 303.879 165.862C303.879 159.863 298.999 154.983 293 154.983C287.001 154.983 282.121 159.863 282.121 165.862C282.121 169.676 284.094 173.037 287.072 174.98C285.425 175.657 283.892 176.619 282.545 177.838C280.35 179.824 278.784 182.367 277.996 185.169C273.653 181.136 270.93 175.38 270.93 169C270.93 156.83 280.83 146.93 293 146.93C305.17 146.93 315.07 156.83 315.07 169C315.07 175.381 312.347 181.136 308.004 185.17Z" fill="#5687E7"/>
<path d="M318.678 82.3223C313.956 77.6005 307.678 75 301 75C294.322 75 288.044 77.6005 283.322 82.3223C278.6 87.0441 276 93.322 276 100C276 106.678 278.6 112.956 283.322 117.678C288.044 122.4 294.322 125 301 125C307.678 125 313.956 122.4 318.678 117.678C323.4 112.956 326 106.678 326 100C326 93.322 323.4 87.0441 318.678 82.3223ZM288.533 118.202C289.579 112.181 294.796 107.741 301 107.741C307.205 107.741 312.421 112.181 313.467 118.202C309.917 120.641 305.623 122.07 301 122.07C296.377 122.07 292.083 120.641 288.533 118.202ZM293.051 96.862C293.051 92.4786 296.617 88.913 301 88.913C305.383 88.913 308.949 92.4789 308.949 96.862C308.949 101.245 305.383 104.811 301 104.811C296.617 104.811 293.051 101.245 293.051 96.862ZM316.004 116.17C315.216 113.367 313.65 110.824 311.455 108.838C310.108 107.619 308.576 106.657 306.928 105.98C309.906 104.037 311.879 100.676 311.879 96.862C311.879 90.8634 306.999 85.9833 301 85.9833C295.001 85.9833 290.121 90.8634 290.121 96.862C290.121 100.676 292.094 104.037 295.072 105.98C293.425 106.657 291.892 107.619 290.545 108.838C288.35 110.824 286.784 113.367 285.996 116.169C281.653 112.136 278.93 106.38 278.93 100C278.93 87.8304 288.83 77.9297 301 77.9297C313.17 77.9297 323.07 87.8304 323.07 100C323.07 106.381 320.347 112.136 316.004 116.17Z" fill="#5687E7"/>
<path d="M109.393 121.161V106.905H72.8125V98.493H92.1177V95.6805C92.1177 86.07 85.9557 77.8729 77.3755 74.829C81.5969 72.3081 84.4313 67.6952 84.4313 62.4311C84.4313 54.4738 77.9575 48 70 48C62.0425 48 55.5685 54.4738 55.5685 62.4313C55.5685 67.6954 58.4029 72.3083 62.6243 74.8292C54.0443 77.8731 47.8823 86.0702 47.8823 95.6807V98.4932H67.1875V106.905H30.6072V121.161H22V144H44.8394V123.435V121.161H36.2322V112.53H67.1875V121.161H58.5803V123.435V144H81.4199V123.435V121.161H72.8125V112.53H103.768V121.161H95.1606V123.435V144H118V121.161H109.393ZM39.2144 126.786V138.375H27.625V126.786H39.2144ZM61.1935 62.4313C61.1935 57.5754 65.1441 53.625 70 53.625C74.8557 53.625 78.8063 57.5754 78.8063 62.4313C78.8063 67.2872 74.8559 71.2376 70 71.2376C65.1441 71.2376 61.1935 67.2872 61.1935 62.4313ZM75.7947 126.786V138.375H64.2051V126.786H75.7947ZM53.7471 92.8682C55.0859 85.1091 61.8644 79.188 70 79.188C78.1356 79.188 84.9141 85.1091 86.2529 92.8682H53.7471ZM112.375 138.375H100.786V126.786H112.375V138.375Z" fill="#0A3589"/>
<path d="M261.482 46.4926C261.896 45.7752 261.65 44.8578 260.932 44.4436L249.241 37.6936C248.524 37.2794 247.606 37.5252 247.192 38.2426C246.778 38.96 247.024 39.8774 247.741 40.2916L258.133 46.2916L252.133 56.684C251.719 57.4014 251.965 58.3188 252.682 58.733C253.4 59.1472 254.317 58.9014 254.732 58.184L261.482 46.4926ZM134.388 81.002L260.571 47.1915L259.794 44.2937L133.612 78.1042L134.388 81.002Z" fill="#0A3589"/>
<path d="M260.932 157.4C261.65 156.986 261.896 156.069 261.482 155.351L254.732 143.66C254.317 142.942 253.4 142.697 252.682 143.111C251.965 143.525 251.719 144.442 252.133 145.16L258.133 155.552L247.741 161.552C247.024 161.966 246.778 162.884 247.192 163.601C247.606 164.319 248.524 164.565 249.241 164.15L260.932 157.4ZM133.612 123.74L259.794 157.55L260.571 154.652L134.388 120.842L133.612 123.74Z" fill="#0A3589"/>
<path d="M266.061 102.061C266.646 101.475 266.646 100.525 266.061 99.9393L256.515 90.3934C255.929 89.8076 254.979 89.8076 254.393 90.3934C253.808 90.9792 253.808 91.9289 254.393 92.5147L262.879 101L254.393 109.485C253.808 110.071 253.808 111.021 254.393 111.607C254.979 112.192 255.929 112.192 256.515 111.607L266.061 102.061ZM134 102.5L265 102.5V99.5L134 99.5V102.5Z" fill="#0A3589"/>
</svg>
