<?xml version="1.0"?>
<svg xmlns="http://www.w3.org/2000/svg" xmlns:xlink="http://www.w3.org/1999/xlink" xmlns:svgjs="http://svgjs.com/svgjs" version="1.1" width="512" height="512" x="0" y="0" viewBox="0 0 513.147 513.147" style="enable-background:new 0 0 512 512" xml:space="preserve" class=""><g><g xmlns="http://www.w3.org/2000/svg"><g><path d="m310.707 378.919h-108.267c-34.251 0-62.017-27.766-62.017-62.017v-193.251c0-64.149 52.002-116.151 116.151-116.151 64.148 0 116.151 52.002 116.151 116.151v193.251c-.001 34.251-27.767 62.017-62.018 62.017z" fill="#596c76" data-original="#596c76" style="" class=""/></g><g><path d="m372.724 123.646v193.26c0 34.25-27.77 62.01-62.02 62.01h-20c34.26 0 62.02-27.76 62.02-62.01v-193.26c0-32.07-13-61.11-34.02-82.13-18.81-18.81-44.04-31.2-72.13-33.59 3.3-.29 6.63-.43 10-.43 32.08 0 61.11 13 82.13 34.02s34.02 50.06 34.02 82.13z" fill="#465a61" data-original="#465a61" style="" class=""/></g><g><path d="m373.947 505.647h-234.749v-85.253c0-60.137 48.751-108.888 108.888-108.888h16.973c60.137 0 108.888 48.751 108.888 108.888z" fill="#c1e9af" data-original="#c1e9af" style=""/></g><g><path d="m373.944 420.396v85.25h-20v-85.25c0-59.64-47.93-108.07-107.37-108.87.5-.02 1.01-.02 1.51-.02h16.98c60.13 0 108.88 48.75 108.88 108.89z" fill="#ade194" data-original="#ade194" style=""/></g><g><path d="m279.042 329.276v-43.081h-44.938v43.081l22.47 27.839z" fill="#ebab7c" data-original="#ffcebf" style="" class=""/></g><g><path d="m348.081 149.248v52.504c0 50.54-40.968 91.508-91.508 91.508s-91.508-40.968-91.508-91.508v-75.588l93.699-18.873z" fill="#ebab7c" data-original="#ffcebf" style="" class=""/></g><g><path d="m348.083 149.248v52.507c0 50.536-40.974 91.51-91.51 91.51-3.475 0-6.909-.195-10.282-.576 45.817-5.264 81.464-46.125 81.464-95.736v-48.064z" fill="#ebab7c" data-original="#ffb09e" style="" class=""/></g><g><g><path d="m171.418 102.846-11.482 24.818-4.27 21.583h9.401c58.859 3.456 91.505-32.551 91.507-32.552v-13.849z" fill="#596c76" data-original="#596c76" style="" class=""/></g><g><path d="m326.711 102.846h-70.138v13.849c.001.002 32.647 36.008 91.507 32.552l-7.37-21.583z" fill="#596c76" data-original="#596c76" style="" class=""/></g></g><g><path d="m165.066 204.795h-11.521c-9.813 0-17.768-7.955-17.768-17.768 0-9.813 7.955-17.768 17.768-17.768h11.521z" fill="#ebab7c" data-original="#ffcebf" style="" class=""/></g><g><path d="m348.081 204.795h11.521c9.813 0 17.768-7.955 17.768-17.768 0-9.813-7.955-17.768-17.768-17.768h-11.521z" fill="#ebab7c" data-original="#ffcebf" style="" class=""/></g><g><path d="m313.232 394.831c4.143 0 7.5-3.358 7.5-7.5s-3.357-7.5-7.5-7.5h-22.232c-4.143 0-7.5 3.358-7.5 7.5s3.357 7.5 7.5 7.5z" fill="#000000" data-original="#000000" style="" class=""/><path d="m380.224 316.902v-115.301c2.921-4.121 4.646-9.148 4.646-14.573s-1.724-10.452-4.646-14.573v-48.805c0-68.181-55.47-123.65-123.65-123.65s-123.65 55.469-123.65 123.65v48.803c-2.921 4.122-4.646 9.148-4.646 14.573s1.724 10.452 4.646 14.573v115.301c0 16.492 5.797 31.638 15.43 43.566-10.565 17.515-16.655 38.021-16.655 59.926 0 4.142 3.357 7.5 7.5 7.5s7.5-3.358 7.5-7.5c0-48.533 34.288-89.182 79.905-99.066v7.948c0 1.714.587 3.376 1.664 4.71l22.47 27.839c1.424 1.764 3.569 2.79 5.836 2.79 2.268 0 4.412-1.025 5.836-2.79l22.469-27.839c1.077-1.334 1.664-2.996 1.664-4.71v-7.958c45.619 9.883 79.905 50.543 79.905 99.077v77.753h-37.012v-76.173c0-4.142-3.357-7.5-7.5-7.5s-7.5 3.358-7.5 7.5v76.173h-115.726v-76.173c0-4.142-3.357-7.5-7.5-7.5s-7.5 3.358-7.5 7.5v76.173h-37.012v-43.396c0-4.142-3.357-7.5-7.5-7.5s-7.5 3.358-7.5 7.5v50.898c0 4.142 3.357 7.5 7.5 7.5h234.749c4.143 0 7.5-3.358 7.5-7.5v-85.253c0-21.897-6.082-42.397-16.64-59.908 9.635-11.93 15.417-27.092 15.417-43.585zm-10.354-129.875c0 5.662-4.606 10.268-10.268 10.268h-4.021v-20.536h4.021c5.661 0 10.268 4.607 10.268 10.268zm-221.947-63.377c0-59.91 48.74-108.65 108.65-108.65s108.65 48.74 108.65 108.65v38.747c-1.809-.413-3.689-.638-5.622-.638h-4.021v-12.512c0-2.958-1.839-5.69-4.467-6.856-1.081-.48-2.293-.701-3.475-.631-54.31 3.192-85.221-29.786-85.525-30.119-.082-.09-.171-.169-.257-.254-2.111-2.105-4.964-2.752-7.769-1.77-1.164.407-2.255 1.137-3.073 2.041-.302.334-30.866 33.317-85.511 30.103-4.146-.248-7.684 2.913-7.927 7.048-.04.684-.014 1.409-.014 2.096v10.855h-4.02c-1.933 0-3.813.225-5.622.638v-38.748zm-4.645 63.377c0-5.662 4.606-10.268 10.268-10.268h4.02v20.536h-4.02c-5.662 0-10.268-4.606-10.268-10.268zm83.326 118.977c-27.793 5.208-52.132 20.327-69.205 41.532-5.967-8.737-9.475-19.278-9.475-30.634v-105.246c1.809.413 3.689.638 5.622.638h4.582c4.2 39.494 31.715 72.126 68.477 83.827v9.883zm44.938 20.623-14.969 18.547-14.97-18.547v-27.003c4.883.744 9.881 1.136 14.969 1.136 5.053 0 10.054-.391 14.97-1.139zm15-20.622v-9.875c17.785-5.638 33.792-16.258 46.066-30.961 2.654-3.18 2.229-7.909-.951-10.564s-7.909-2.229-10.564.951c-16.024 19.195-39.542 30.204-64.521 30.204-46.309 0-83.986-37.665-84.007-83.97v-32.531c0-.007-.001-.013-.001-.019v-12.264c.169.001.342.007.511.007 43.551 0 72.106-20.105 83.497-29.968 11.39 9.863 39.941 29.968 83.497 29.968.169 0 .343-.007.512-.008v44.775c0 8.972-1.405 17.8-4.177 26.238-1.292 3.936.851 8.173 4.786 9.466.777.255 1.565.376 2.341.376 3.152 0 6.087-2.004 7.125-5.162 2.174-6.62 3.618-13.441 4.353-20.375h4.593c1.933 0 3.813-.225 5.622-.638v105.245c0 11.355-3.5 21.901-9.464 30.639-17.073-21.208-41.421-36.325-69.218-41.534z" fill="#000000" data-original="#000000" style="" class=""/><path d="m223.926 169.844c-4.143 0-7.5 3.358-7.5 7.5v14.3c0 4.142 3.357 7.5 7.5 7.5s7.5-3.358 7.5-7.5v-14.3c0-4.142-3.357-7.5-7.5-7.5z" fill="#000000" data-original="#000000" style="" class=""/><path d="m289.219 169.844c-4.143 0-7.5 3.358-7.5 7.5v14.3c0 4.142 3.357 7.5 7.5 7.5s7.5-3.358 7.5-7.5v-14.3c0-4.142-3.357-7.5-7.5-7.5z" fill="#000000" data-original="#000000" style="" class=""/><path d="m262.32 232.781c-1.456 1.557-3.431 2.415-5.561 2.415-2.205 0-4.3-.956-5.749-2.624-2.717-3.126-7.454-3.459-10.58-.742-3.127 2.717-3.459 7.454-.742 10.581 4.299 4.947 10.521 7.785 17.071 7.785 6.236 0 12.256-2.613 16.518-7.17 2.829-3.025 2.67-7.771-.356-10.601-3.026-2.828-7.772-2.669-10.601.356z" fill="#000000" data-original="#000000" style="" class=""/></g></g><script/></g></svg>
