<svg fill="#2888e0" width="41" height="32" viewBox="0 0 41 32" xmlns="http://www.w3.org/2000/svg">
  <path d="M34.7675 10.7317C37.0173 10.3708 42.018 9.07892 40.8162 4.80517C40.6112 4.65583 36.4933 5.12377 34.9878 5.3005C34.9891 5.11631 34.9994 4.93709 34.9994 4.75041V3.92404L34.2947 3.49716C29.3657 0.509017 24.6982 0.174236 20.3932 0.00373365V0C20.3842 0.00124454 20.3753 0.0024889 20.3663 0.0024889C20.3573 0.0024889 20.3484 0.00124454 20.3394 0V0.0049781C16.0357 0.17548 11.3668 0.509017 6.4379 3.4984L5.73322 3.92528V4.75166C5.73322 4.94332 5.74347 5.12626 5.74603 5.31543C4.07401 5.1188 0.376339 4.7081 0.184153 4.84873C-1.01509 9.10879 3.94973 10.4056 6.20984 10.7727V10.774C4.41994 10.6209 1.25143 10.372 1.06693 10.4977C-0.433406 15.2568 6.00868 16.2027 7.6128 16.3632C7.61408 16.3657 7.61536 16.3682 7.61664 16.3732C5.79856 16.2201 2.83889 15.9899 2.66336 16.1131C1.1643 20.8672 8.54683 22.0072 10.3931 22.2163C14.324 28.5709 20.365 31.7769 20.365 31.7769C20.365 31.7769 26.4176 28.5684 30.3472 22.2001C31.5784 22.0819 39.9219 21.0962 38.3344 16.0695C38.1474 15.9401 34.8981 16.1989 33.1223 16.352C33.1236 16.3483 33.1236 16.3458 33.1249 16.3433C34.0589 16.2724 41.535 15.5418 39.9322 10.4554C39.7451 10.3272 36.5522 10.5798 34.7675 10.7317ZM20.3932 28.3631C20.3855 28.3705 8.98373 20.0271 8.65829 5.58052C12.8569 3.14247 16.7852 3.09019 20.3663 2.92965C23.9474 3.09019 27.8757 3.14247 32.0769 5.58052C31.7476 20.0271 20.3932 28.3631 20.3932 28.3631Z" />
</svg>
